<?xml version="1.0" encoding="UTF-8" standalone="no"?>
<svg width="550px" height="550px" viewBox="0 0 550 550" version="1.1" xmlns="http://www.w3.org/2000/svg" xmlns:xlink="http://www.w3.org/1999/xlink">
    <title>Aura</title>
    <description>Created with love by @unity</description>
    <defs>
        <radialGradient cx="73%" cy="20%" fx="75%" fy="20%" r="52%" id="grad_4">
            <stop stop-color="#56F8B8" offset="0%"></stop>
            <stop stop-color="#4BEFBC" offset="51%"></stop>
            <stop stop-color="#53E2EA" offset="100%"></stop>
        </radialGradient>

        <radialGradient cx="23%" cy="75%" fx="23%" fy="75%" r="69%" id="grad_5">
            <stop stop-color="#0D81AD" offset="0%"></stop>
            <stop stop-color="#2EBED7" offset="50%"></stop>
            <stop stop-color="#51E1E8" stop-opacity="0" offset="100%"></stop>
        </radialGradient>

        <radialGradient cx="46%" cy="56%" fx="46%" fy="56%" r="26%" id="grad_6">
            <stop stop-color="#23E1D2" offset="0%"></stop>
            <stop stop-color="#12DDD0" offset="60%"></stop>
            <stop stop-color="#0FBDCE" stop-opacity="0" offset="100%"></stop>
        </radialGradient>

        <radialGradient cx="50%" cy="50%" fx="50%" fy="50%" r="50%" id="grad_halo">
            <stop stop-color="white" stop-opacity="0" offset="75%"></stop>
            <stop stop-color="white" stop-opacity="0.5" offset="89%"></stop>
            <stop stop-color="white" stop-opacity="1" offset="89.1%"></stop>
            <stop stop-color="white" stop-opacity="0" offset="100%"></stop>
        </radialGradient>

        <circle id="circle" cx="250" cy="250" r="250" stroke="none"/>
        <mask id="circle_mask" fill="black">
            <use xlink:href="#circle" fill="url(#grad_halo)"></use>
        </mask>

        <g id="grad_circle">
            <use id="Circle_Colors" fill="url(#grad_4)" xlink:href="#circle"></use>
            <use id="Circle_Colors-1" fill="url(#grad_5)" xlink:href="#circle"></use>
            <use id="Circle_Colors-2" fill="url(#grad_6)" xlink:href="#circle"></use> 
        </g>

        <mask id="mask_a" fill="white" >
            <path transform="translate(112.000000, 200.000000)" d="M46.0731129,52.5650558 C45.0742328,53.1908334 44.1377968,53.6288711 43.2637767,53.8791822 C41.3908766,54.5049598 39.3619319,55.2245932 37.1768817,56.0381041 C34.9918316,56.851615 32.9628869,57.5712484 31.0899867,58.197026 C28.8425066,58.9479591 26.7199183,59.698881 24.7221581,60.4498141 C23.223838,61.0755917 21.7879695,61.9516672 20.4145094,63.0780669 C19.2907693,64.0793111 18.2606897,65.3621359 17.3242396,66.9265799 C16.3877895,68.4910239 15.9195715,70.4621938 15.9195715,72.8401487 C15.9195715,77.5960585 17.0432947,81.1316489 19.2907749,83.447026 C21.5382551,85.7624032 25.7210026,86.9200743 31.839143,86.9200743 C38.0821435,86.9200743 42.3273201,85.6998263 44.5748003,83.2592937 C46.8222804,80.818761 47.9460036,77.3457474 47.9460036,72.8401487 L47.9460036,49.7490706 C47.6962836,51.0006258 47.071993,51.9392782 46.0731129,52.5650558 Z M55.9994339,6.4767658 C61.1186943,10.7946313 63.6782861,16.2075263 63.6782861,22.7156134 L63.6782861,31.7267658 L63.6782861,72.8401487 L63.6782861,78.2843866 C63.6782861,80.537186 63.2724972,83.0089704 62.4609071,85.6998141 C61.649317,88.3906578 60.0573758,90.8624423 57.6850356,93.1152416 C55.3126955,95.368041 52.0663839,97.2453457 47.9460036,98.7472119 C43.8256234,100.249078 38.4567235,101 31.839143,101 C25.2215626,101 19.8526627,100.249078 15.7322824,98.7472119 C11.6119022,97.2453457 8.36559062,95.368041 5.99325046,93.1152416 C3.62091029,90.8624423 2.02896906,88.3906578 1.217379,85.6998141 C0.405788942,83.0089704 -5.68434189e-14,80.537186 -5.68434189e-14,78.2843866 L-5.68434189e-14,69.4609665 C-5.68434189e-14,64.7050568 1.21736683,60.3872561 3.652137,56.5074349 C6.08690717,52.6276138 9.55172044,49.8742337 14.0466808,48.2472119 C16.2941609,47.4962788 18.8537527,46.6202033 21.7255329,45.6189591 C24.5973131,44.6177149 27.3754066,43.6477742 30.0598968,42.7091078 C32.744387,41.7704414 35.0854771,40.9256543 37.0832372,40.1747212 C39.0809973,39.4237881 40.3295787,38.9857503 40.8290187,38.8605948 C41.3284588,38.6102838 41.983964,38.2661112 42.795554,37.8280669 C43.6071441,37.3900226 44.3875074,36.732966 45.1366675,35.8568773 C45.8858275,34.9807887 46.5413328,33.9795595 47.1032028,32.8531599 C47.6650728,31.7267602 47.9460036,30.4126469 47.9460036,28.9107807 L47.9460036,25.3438662 C47.9460036,24.092311 47.6962874,22.8094861 47.1968473,21.4953532 C46.6974073,20.1812202 45.8234004,18.9609722 44.5748003,17.8345725 C43.3262002,16.7081728 41.6718299,15.8008089 39.6116397,15.1124535 C37.5514496,14.4240982 34.9606433,14.0799257 31.839143,14.0799257 C25.5961426,14.0799257 21.3821805,15.3627505 19.1971304,17.9284387 C17.0120802,20.4941268 15.9195715,23.5916795 15.9195715,27.2211896 L-5.68434189e-14,27.2211896 L-5.68434189e-14,22.7156134 C-5.68434189e-14,19.5867254 0.593076146,16.6456148 1.77924623,13.8921933 C2.96541631,11.1387719 4.86950289,8.72956423 7.49156307,6.66449814 C10.1136233,4.59943205 13.4223639,2.97243469 17.4178841,1.78345725 C21.4134044,0.594479805 26.2204427,0 31.839143,0 C42.8268238,0 50.8801736,2.15890034 55.9994339,6.4767658 Z M55.9994339,6.4767658"></path>
        </mask>
        <mask id="mask_u" fill="white" >
            <path transform="translate(112.000000, 200.000000)" d="M145.710902,74.7174721 L145.710902,78.0966543 C145.710902,79.5985205 145.461185,81.6009788 144.961745,84.1040892 C144.462305,86.6071996 143.151295,89.1102725 141.028675,91.6133829 C138.906055,94.1164933 135.722172,96.2753937 131.476932,98.0901487 C127.231692,99.9049037 121.363359,100.812268 113.871759,100.812268 C106.380158,100.812268 100.511826,99.9049037 96.2665854,98.0901487 C92.0213451,96.2753937 88.8374627,94.1164933 86.7148425,91.6133829 C84.5922224,89.1102725 83.281212,86.5759112 82.7817719,84.010223 C82.2823319,81.4445349 82.0326156,79.473365 82.0326156,78.0966543 L82.0326156,76.0315985 L82.0326156,1.31412639 L97.7648981,1.31412639 L97.7648981,73.2156134 L97.9521871,75.0929368 C97.9521871,76.094181 98.1082598,77.2831406 98.4204098,78.6598513 C98.7325599,80.036562 99.4192796,81.3193869 100.48059,82.5083643 C101.5419,83.6973418 103.102626,84.6985709 105.162817,85.5120818 C107.223007,86.3255927 110.0011,86.732342 113.497181,86.732342 C117.118121,86.732342 119.989858,86.3255927 122.112478,85.5120818 C124.235098,84.6985709 125.858254,83.7286302 126.981994,82.6022305 C128.105734,81.4758308 128.854883,80.2555828 129.229463,78.9414498 C129.604043,77.6273168 129.79133,76.4070688 129.79133,75.2806691 L129.79133,73.2156134 L129.978619,1.31412639 L145.710902,1.31412639 L145.710902,74.7174721 Z M145.710902,74.7174721"></path>
        </mask>
        <mask id="mask_r" fill="white" >
            <path transform="translate(112.000000, 200.000000)" d="M201.429402,0.093866171 C202.990152,0.0312884108 204.644522,0.125153643 206.392563,0.375464684 L202.83407,14.0799257 C201.33575,14.0799257 200.087169,14.1112141 199.088289,14.1737918 C198.089409,14.2363696 196.903256,14.267658 195.529796,14.267658 C192.158576,14.267658 189.442911,14.7056957 187.382721,15.5817844 C185.322531,16.457873 183.73059,17.4903906 182.60685,18.679368 C181.48311,19.8683455 180.765175,21.1198819 180.453025,22.4340149 C180.140875,23.7481478 179.984803,24.9683959 179.984803,26.0947955 L179.984803,27.7843866 L179.984803,99.4981413 L164.065231,99.4981413 L164.065231,27.2211896 L164.065231,22.9033457 C164.065231,21.526635 164.314948,19.5554651 164.814388,16.989777 C165.313828,14.4240888 166.624838,11.8897275 168.747458,9.3866171 C170.870078,6.88350669 174.053961,4.72460635 178.299201,2.9098513 C182.544441,1.09509625 188.412774,0.187732342 195.904374,0.187732342 C198.026994,0.187732342 199.868652,0.156443931 201.429402,0.093866171 Z M201.429402,0.093866171"></path>
        </mask>
        <mask id="mask_a_2" fill="white" >
            <path transform="translate(327.000000, 200.000000)" d="M46.0731129,52.5650558 C45.0742328,53.1908334 44.1377968,53.6288711 43.2637767,53.8791822 C41.3908766,54.5049598 39.3619319,55.2245932 37.1768817,56.0381041 C34.9918316,56.851615 32.9628869,57.5712484 31.0899867,58.197026 C28.8425066,58.9479591 26.7199183,59.698881 24.7221581,60.4498141 C23.223838,61.0755917 21.7879695,61.9516672 20.4145094,63.0780669 C19.2907693,64.0793111 18.2606897,65.3621359 17.3242396,66.9265799 C16.3877895,68.4910239 15.9195715,70.4621938 15.9195715,72.8401487 C15.9195715,77.5960585 17.0432947,81.1316489 19.2907749,83.447026 C21.5382551,85.7624032 25.7210026,86.9200743 31.839143,86.9200743 C38.0821435,86.9200743 42.3273201,85.6998263 44.5748003,83.2592937 C46.8222804,80.818761 47.9460036,77.3457474 47.9460036,72.8401487 L47.9460036,49.7490706 C47.6962836,51.0006258 47.071993,51.9392782 46.0731129,52.5650558 Z M55.9994339,6.4767658 C61.1186943,10.7946313 63.6782861,16.2075263 63.6782861,22.7156134 L63.6782861,31.7267658 L63.6782861,72.8401487 L63.6782861,78.2843866 C63.6782861,80.537186 63.2724972,83.0089704 62.4609071,85.6998141 C61.649317,88.3906578 60.0573758,90.8624423 57.6850356,93.1152416 C55.3126955,95.368041 52.0663839,97.2453457 47.9460036,98.7472119 C43.8256234,100.249078 38.4567235,101 31.839143,101 C25.2215626,101 19.8526627,100.249078 15.7322824,98.7472119 C11.6119022,97.2453457 8.36559062,95.368041 5.99325046,93.1152416 C3.62091029,90.8624423 2.02896906,88.3906578 1.217379,85.6998141 C0.405788942,83.0089704 -5.68434189e-14,80.537186 -5.68434189e-14,78.2843866 L-5.68434189e-14,69.4609665 C-5.68434189e-14,64.7050568 1.21736683,60.3872561 3.652137,56.5074349 C6.08690717,52.6276138 9.55172044,49.8742337 14.0466808,48.2472119 C16.2941609,47.4962788 18.8537527,46.6202033 21.7255329,45.6189591 C24.5973131,44.6177149 27.3754066,43.6477742 30.0598968,42.7091078 C32.744387,41.7704414 35.0854771,40.9256543 37.0832372,40.1747212 C39.0809973,39.4237881 40.3295787,38.9857503 40.8290187,38.8605948 C41.3284588,38.6102838 41.983964,38.2661112 42.795554,37.8280669 C43.6071441,37.3900226 44.3875074,36.732966 45.1366675,35.8568773 C45.8858275,34.9807887 46.5413328,33.9795595 47.1032028,32.8531599 C47.6650728,31.7267602 47.9460036,30.4126469 47.9460036,28.9107807 L47.9460036,25.3438662 C47.9460036,24.092311 47.6962874,22.8094861 47.1968473,21.4953532 C46.6974073,20.1812202 45.8234004,18.9609722 44.5748003,17.8345725 C43.3262002,16.7081728 41.6718299,15.8008089 39.6116397,15.1124535 C37.5514496,14.4240982 34.9606433,14.0799257 31.839143,14.0799257 C25.5961426,14.0799257 21.3821805,15.3627505 19.1971304,17.9284387 C17.0120802,20.4941268 15.9195715,23.5916795 15.9195715,27.2211896 L-5.68434189e-14,27.2211896 L-5.68434189e-14,22.7156134 C-5.68434189e-14,19.5867254 0.593076146,16.6456148 1.77924623,13.8921933 C2.96541631,11.1387719 4.86950289,8.72956423 7.49156307,6.66449814 C10.1136233,4.59943205 13.4223639,2.97243469 17.4178841,1.78345725 C21.4134044,0.594479805 26.2204427,0 31.839143,0 C42.8268238,0 50.8801736,2.15890034 55.9994339,6.4767658 Z M55.9994339,6.4767658"></path>
        </mask>


    </defs>
    <g id="Full Color" shape-rendering="geometricPrecision" color-rendering="optimizeQuality">

        <g id="aura_halo" mask="url(#circle_mask)">
            <use id="gc" xlink:href="#grad_circle"></use>
         </g>

         <g id="aura_text">
             <g class='letter' id="letter_a" mask="url(#mask_a)">
                <use xlink:href="#grad_circle"></use>
             </g>
             <g class='letter' id="letter_u" mask="url(#mask_u)">
                <use xlink:href="#grad_circle"></use>
             </g>
             <g class='letter' id="letter_r" mask="url(#mask_r)">
                <use xlink:href="#grad_circle"></use>
             </g>
             <g class='letter' id="letter_a_2" mask="url(#mask_a_2)">
                <use xlink:href="#grad_circle"></use>
             </g>
         </g>
    </g>
</svg>
